# xmcd
#
# Track frame offsets: 
#        150
#        47901
#        92088
#        133568
#        173053
#        187071
#        200137
#        214077
#        227703
#        241651
#        255714
#        268856
#        282165
#        295831
#        309111
#        322656
#
# Disc length: 4662 seconds
#
# Revision: 2
# Processed by: cddbd v1.5.2PL0 Copyright (c) Steve Scherf et al.
# Submitted via: ExactAudioCopyFreeDBPlugin 1.0
#
DISCID=e7123410
DTITLE=Various Artist - Jazz Roads CD374 - Bebop - Woody's Boys Vol.2 (1946)
DYEAR=1900
DGENRE=Jazz
TTITLE0=Sonny Berman - Woodchopper's Holiday (Down With Up)
TTITLE1=Sonny Berman - Sonny's Blues (Ciretose)
TTITLE2=Sonny Berman - Sonny Speaks Out (Higgimus Hoggimus)
TTITLE3=Sonny Berman - Bmt Face (Slumbering Giant)
TTITLE4=Bill Harris And His New Music - Everything Happens To Me
TTITLE5=Bill Harris And His New Music - Frustration
TTITLE6=Bill Harris Big Eight - Curbstone Scuffle
TTITLE7=Bill Harris Big Eight - Curbstone Scuffle
TTITLE8=Bill Harris Big Eight - Nocturne
TTITLE9=Bill Harris Big Eight - Moon Burns
TTITLE10=Bill Harris Big Eight - Woodchopper's Holiday
TTITLE11=Bill Harris Big Eight - Woodchopper's Holiday
TTITLE12=Bill Harris Big Eight - Harris Tweed (Somebody Loves Me)
TTITLE13=Bill Harris Big Eight - Somebody Loves Me
TTITLE14=Serge Chaloff - Blue Serge (The Mad Monk)
TTITLE15=Serge Chaloff - Blue Serge
EXTD=
EXTT0=
EXTT1=
EXTT2=
EXTT3=
EXTT4=
EXTT5=
EXTT6=
EXTT7=
EXTT8=
EXTT9=
EXTT10=
EXTT11=
EXTT12=
EXTT13=
EXTT14=
EXTT15=
PLAYORDER=
